<mxfile host="Electron" agent="Mozilla/5.0 (Windows NT 10.0; Win64; x64) AppleWebKit/537.36 (KHTML, like Gecko) draw.io/24.7.17 Chrome/128.0.6613.36 Electron/32.0.1 Safari/537.36" version="24.7.17">
  <diagram name="Страница — 1" id="Fn2XBlIv3PQXeAt3kuNt">
    <mxGraphModel dx="1728" dy="1012" grid="1" gridSize="10" guides="1" tooltips="1" connect="1" arrows="1" fold="1" page="1" pageScale="1" pageWidth="827" pageHeight="1169" math="0" shadow="0">
      <root>
        <mxCell id="0" />
        <mxCell id="1" parent="0" />
        <mxCell id="3LtSgOXOUwUSsD5i1D2i-1" value="Инфблок &quot;Категории комфорта&quot;" style="swimlane;whiteSpace=wrap;html=1;" vertex="1" parent="1">
          <mxGeometry x="404" y="510" width="210" height="90" as="geometry">
            <mxRectangle x="360" y="90" width="220" height="30" as="alternateBounds" />
          </mxGeometry>
        </mxCell>
        <mxCell id="3LtSgOXOUwUSsD5i1D2i-8" value="Основные данные&lt;div&gt;&lt;ul&gt;&lt;li&gt;название автомобиля&lt;/li&gt;&lt;li&gt;описание&amp;nbsp;&lt;span style=&quot;background-color: initial;&quot;&gt;автомобиля&lt;/span&gt;&lt;/li&gt;&lt;/ul&gt;&lt;/div&gt;" style="text;html=1;align=left;verticalAlign=middle;resizable=0;points=[];autosize=1;strokeColor=none;fillColor=none;" vertex="1" parent="3LtSgOXOUwUSsD5i1D2i-1">
          <mxGeometry y="20" width="190" height="80" as="geometry" />
        </mxCell>
        <mxCell id="3LtSgOXOUwUSsD5i1D2i-15" value="Инфблок &quot;Автомобили&quot;" style="swimlane;whiteSpace=wrap;html=1;" vertex="1" parent="1">
          <mxGeometry x="70" y="280" width="180" height="190" as="geometry" />
        </mxCell>
        <mxCell id="3LtSgOXOUwUSsD5i1D2i-16" value="Основные данные&lt;div&gt;&lt;ul&gt;&lt;li&gt;название автомобиля&lt;/li&gt;&lt;li&gt;описание&amp;nbsp;&lt;span style=&quot;background-color: initial;&quot;&gt;автомобиля&lt;/span&gt;&lt;/li&gt;&lt;/ul&gt;&lt;/div&gt;" style="text;html=1;align=left;verticalAlign=middle;resizable=0;points=[];autosize=1;strokeColor=none;fillColor=none;" vertex="1" parent="3LtSgOXOUwUSsD5i1D2i-15">
          <mxGeometry y="20" width="190" height="80" as="geometry" />
        </mxCell>
        <mxCell id="3LtSgOXOUwUSsD5i1D2i-17" value="" style="endArrow=none;html=1;rounded=0;exitX=-0.005;exitY=-0.029;exitDx=0;exitDy=0;entryX=0.945;entryY=1.011;entryDx=0;entryDy=0;entryPerimeter=0;exitPerimeter=0;" edge="1" parent="3LtSgOXOUwUSsD5i1D2i-15" source="3LtSgOXOUwUSsD5i1D2i-19" target="3LtSgOXOUwUSsD5i1D2i-16">
          <mxGeometry width="50" height="50" relative="1" as="geometry">
            <mxPoint x="80" y="140" as="sourcePoint" />
            <mxPoint x="130" y="90" as="targetPoint" />
          </mxGeometry>
        </mxCell>
        <mxCell id="3LtSgOXOUwUSsD5i1D2i-18" value="" style="endArrow=none;html=1;rounded=0;" edge="1" parent="3LtSgOXOUwUSsD5i1D2i-15">
          <mxGeometry width="50" height="50" relative="1" as="geometry">
            <mxPoint y="130" as="sourcePoint" />
            <mxPoint x="180" y="130" as="targetPoint" />
          </mxGeometry>
        </mxCell>
        <mxCell id="3LtSgOXOUwUSsD5i1D2i-19" value="Свойства" style="text;html=1;align=center;verticalAlign=middle;resizable=0;points=[];autosize=1;strokeColor=none;fillColor=none;" vertex="1" parent="3LtSgOXOUwUSsD5i1D2i-15">
          <mxGeometry y="100" width="80" height="30" as="geometry" />
        </mxCell>
        <mxCell id="3LtSgOXOUwUSsD5i1D2i-20" value="Водитель" style="text;html=1;align=center;verticalAlign=middle;resizable=0;points=[];autosize=1;strokeColor=none;fillColor=none;" vertex="1" parent="3LtSgOXOUwUSsD5i1D2i-15">
          <mxGeometry x="20" y="130" width="80" height="30" as="geometry" />
        </mxCell>
        <mxCell id="3LtSgOXOUwUSsD5i1D2i-21" value="Категория комфорта" style="text;html=1;align=center;verticalAlign=middle;resizable=0;points=[];autosize=1;strokeColor=none;fillColor=none;" vertex="1" parent="3LtSgOXOUwUSsD5i1D2i-15">
          <mxGeometry x="20" y="160" width="140" height="30" as="geometry" />
        </mxCell>
        <mxCell id="3LtSgOXOUwUSsD5i1D2i-22" value="Пользователи портала" style="rounded=0;whiteSpace=wrap;html=1;" vertex="1" parent="1">
          <mxGeometry x="354" y="300" width="156" height="60" as="geometry" />
        </mxCell>
        <mxCell id="3LtSgOXOUwUSsD5i1D2i-28" value="Highload-блок &quot;Должности&quot;" style="swimlane;whiteSpace=wrap;html=1;" vertex="1" parent="1">
          <mxGeometry x="624" y="400" width="180" height="83" as="geometry" />
        </mxCell>
        <mxCell id="3LtSgOXOUwUSsD5i1D2i-33" value="Название" style="text;html=1;align=left;verticalAlign=middle;resizable=0;points=[];autosize=1;strokeColor=none;fillColor=none;" vertex="1" parent="3LtSgOXOUwUSsD5i1D2i-28">
          <mxGeometry y="23" width="80" height="30" as="geometry" />
        </mxCell>
        <mxCell id="3LtSgOXOUwUSsD5i1D2i-35" value="Категории комфорта (множ.)" style="text;html=1;align=left;verticalAlign=middle;resizable=0;points=[];autosize=1;strokeColor=none;fillColor=none;" vertex="1" parent="3LtSgOXOUwUSsD5i1D2i-28">
          <mxGeometry y="53" width="180" height="30" as="geometry" />
        </mxCell>
        <mxCell id="3LtSgOXOUwUSsD5i1D2i-36" value="Highload-блок &quot;Занятость автомобилей&quot;" style="swimlane;whiteSpace=wrap;html=1;" vertex="1" parent="1">
          <mxGeometry x="154" y="70" width="250" height="140" as="geometry" />
        </mxCell>
        <mxCell id="3LtSgOXOUwUSsD5i1D2i-38" value="Пользователь" style="text;html=1;align=left;verticalAlign=middle;resizable=0;points=[];autosize=1;strokeColor=none;fillColor=none;" vertex="1" parent="3LtSgOXOUwUSsD5i1D2i-36">
          <mxGeometry y="23" width="100" height="30" as="geometry" />
        </mxCell>
        <mxCell id="3LtSgOXOUwUSsD5i1D2i-39" value="Автомобиль" style="text;html=1;align=left;verticalAlign=middle;resizable=0;points=[];autosize=1;strokeColor=none;fillColor=none;" vertex="1" parent="3LtSgOXOUwUSsD5i1D2i-36">
          <mxGeometry y="53" width="90" height="30" as="geometry" />
        </mxCell>
        <mxCell id="3LtSgOXOUwUSsD5i1D2i-40" value="Когда будет занято" style="text;html=1;align=left;verticalAlign=middle;resizable=0;points=[];autosize=1;strokeColor=none;fillColor=none;" vertex="1" parent="3LtSgOXOUwUSsD5i1D2i-36">
          <mxGeometry y="85" width="130" height="30" as="geometry" />
        </mxCell>
        <mxCell id="3LtSgOXOUwUSsD5i1D2i-41" value="Когда станет свободно" style="text;html=1;align=left;verticalAlign=middle;resizable=0;points=[];autosize=1;strokeColor=none;fillColor=none;" vertex="1" parent="3LtSgOXOUwUSsD5i1D2i-36">
          <mxGeometry y="115" width="150" height="30" as="geometry" />
        </mxCell>
        <mxCell id="3LtSgOXOUwUSsD5i1D2i-56" style="edgeStyle=orthogonalEdgeStyle;rounded=0;orthogonalLoop=1;jettySize=auto;html=1;entryX=0.5;entryY=0;entryDx=0;entryDy=0;" edge="1" parent="1" source="3LtSgOXOUwUSsD5i1D2i-45" target="3LtSgOXOUwUSsD5i1D2i-28">
          <mxGeometry relative="1" as="geometry" />
        </mxCell>
        <mxCell id="3LtSgOXOUwUSsD5i1D2i-45" value="Пользовательские поля" style="swimlane;whiteSpace=wrap;html=1;" vertex="1" parent="1">
          <mxGeometry x="624" y="300" width="180" height="49" as="geometry" />
        </mxCell>
        <mxCell id="3LtSgOXOUwUSsD5i1D2i-46" value="Должность" style="text;html=1;align=left;verticalAlign=middle;resizable=0;points=[];autosize=1;strokeColor=none;fillColor=none;" vertex="1" parent="3LtSgOXOUwUSsD5i1D2i-45">
          <mxGeometry y="23" width="80" height="30" as="geometry" />
        </mxCell>
        <mxCell id="3LtSgOXOUwUSsD5i1D2i-48" value="" style="endArrow=none;html=1;rounded=0;entryX=0.002;entryY=0.451;entryDx=0;entryDy=0;entryPerimeter=0;exitX=1.001;exitY=0.62;exitDx=0;exitDy=0;exitPerimeter=0;" edge="1" parent="1" source="3LtSgOXOUwUSsD5i1D2i-22" target="3LtSgOXOUwUSsD5i1D2i-46">
          <mxGeometry width="50" height="50" relative="1" as="geometry">
            <mxPoint x="514" y="337" as="sourcePoint" />
            <mxPoint x="621.6" y="310" as="targetPoint" />
          </mxGeometry>
        </mxCell>
        <mxCell id="3LtSgOXOUwUSsD5i1D2i-50" value="&lt;font style=&quot;font-size: 10px;&quot;&gt;объект USER&lt;/font&gt;" style="text;html=1;align=left;verticalAlign=middle;resizable=0;points=[];autosize=1;strokeColor=none;fillColor=none;" vertex="1" parent="1">
          <mxGeometry x="534" y="315" width="90" height="30" as="geometry" />
        </mxCell>
        <mxCell id="3LtSgOXOUwUSsD5i1D2i-59" style="edgeStyle=orthogonalEdgeStyle;rounded=0;orthogonalLoop=1;jettySize=auto;html=1;entryX=0.445;entryY=-0.018;entryDx=0;entryDy=0;entryPerimeter=0;" edge="1" parent="1" source="3LtSgOXOUwUSsD5i1D2i-35" target="3LtSgOXOUwUSsD5i1D2i-1">
          <mxGeometry relative="1" as="geometry">
            <mxPoint x="594" y="520" as="targetPoint" />
          </mxGeometry>
        </mxCell>
        <mxCell id="3LtSgOXOUwUSsD5i1D2i-61" value="" style="edgeStyle=segmentEdgeStyle;endArrow=classic;html=1;curved=0;rounded=0;endSize=8;startSize=8;entryX=0;entryY=0.5;entryDx=0;entryDy=0;" edge="1" parent="1">
          <mxGeometry width="50" height="50" relative="1" as="geometry">
            <mxPoint x="250" y="420" as="sourcePoint" />
            <mxPoint x="354" y="332" as="targetPoint" />
            <Array as="points">
              <mxPoint x="260" y="420" />
              <mxPoint x="280" y="420" />
              <mxPoint x="280" y="332" />
            </Array>
          </mxGeometry>
        </mxCell>
        <mxCell id="3LtSgOXOUwUSsD5i1D2i-64" value="" style="endArrow=classic;html=1;rounded=0;entryX=0.171;entryY=0;entryDx=0;entryDy=0;entryPerimeter=0;" edge="1" parent="1" target="3LtSgOXOUwUSsD5i1D2i-1">
          <mxGeometry width="50" height="50" relative="1" as="geometry">
            <mxPoint x="250" y="455" as="sourcePoint" />
            <mxPoint x="440" y="460" as="targetPoint" />
            <Array as="points">
              <mxPoint x="440" y="455" />
            </Array>
          </mxGeometry>
        </mxCell>
        <mxCell id="3LtSgOXOUwUSsD5i1D2i-65" value="" style="endArrow=classic;html=1;rounded=0;exitX=1;exitY=0.25;exitDx=0;exitDy=0;entryX=0.551;entryY=0;entryDx=0;entryDy=0;entryPerimeter=0;" edge="1" parent="1" source="3LtSgOXOUwUSsD5i1D2i-36" target="3LtSgOXOUwUSsD5i1D2i-22">
          <mxGeometry width="50" height="50" relative="1" as="geometry">
            <mxPoint x="420" y="130" as="sourcePoint" />
            <mxPoint x="470" y="80" as="targetPoint" />
            <Array as="points">
              <mxPoint x="440" y="105" />
            </Array>
          </mxGeometry>
        </mxCell>
        <mxCell id="3LtSgOXOUwUSsD5i1D2i-66" value="" style="endArrow=classic;html=1;rounded=0;entryX=0.278;entryY=0;entryDx=0;entryDy=0;entryPerimeter=0;exitX=-0.007;exitY=0.453;exitDx=0;exitDy=0;exitPerimeter=0;" edge="1" parent="1" source="3LtSgOXOUwUSsD5i1D2i-39" target="3LtSgOXOUwUSsD5i1D2i-15">
          <mxGeometry width="50" height="50" relative="1" as="geometry">
            <mxPoint x="150" y="137" as="sourcePoint" />
            <mxPoint x="100" y="140" as="targetPoint" />
            <Array as="points">
              <mxPoint x="120" y="137" />
            </Array>
          </mxGeometry>
        </mxCell>
      </root>
    </mxGraphModel>
  </diagram>
</mxfile>
